# xmcd
#
# Track frame offsets:
#	150
#	13297
#	27932
#	50425
#	64817
#	87155
#	110745
#	127502
#	146325
#	157585
#	172515
#	186380
#	203932
#	239930
#	254205
#	291392
#	300577
#
# Disc length: 4243 seconds
#
# Revision: 5
# Processed by: cddbd v1.5.2PL0 Copyright (c) Steve Scherf et al.
# Submitted via: EZCDAudioConverter 1.0.6.1
#
DISCID=f1109111
DTITLE=Keith Frank and the Soileau Zydeco Band - Live at Slim's Y-Ki-Ki
DYEAR=1997
DGENRE=Ethnic
TTITLE0=Give Me Just A Little Time
TTITLE1=She Fools Around (She Petahsay)
TTITLE2=Why You Wanna Make Me Cry?
TTITLE3=Hey Pretty Babby (With Your Teeth So White)
TTITLE4=Co Fa
TTITLE5=You're Breaking My Heart
TTITLE6=Donne-mon Ca (Give It To Me)
TTITLE7=Hold On To It
TTITLE8=Ca Joue Ma Musique De Tuer Les Herbes
TTITLE9=Maymel
TTITLE10=Sometimes We Make You Move Your Feet
TTITLE11=Chocolate 3-Step
TTITLE12=Rising To The Top
TTITLE13=Soileau Zydeco
TTITLE14=Moving To The Groove
TTITLE15=I like To Do My Thing
TTITLE16=I Want Her
EXTD=
EXTT0=
EXTT1=
EXTT2=
EXTT3=
EXTT4=
EXTT5=
EXTT6=
EXTT7=
EXTT8=
EXTT9=
EXTT10=
EXTT11=
EXTT12=
EXTT13=
EXTT14=
EXTT15=
EXTT16=
PLAYORDER=
